<svg width="24" height="24" viewBox="0 0 24 24" fill="none" xmlns="http://www.w3.org/2000/svg">
<path d="M12 12V11C11.4477 11 11 11.4477 11 12H12ZM12.0797 12H13.0797C13.0797 11.4477 12.632 11 12.0797 11V12ZM12.0797 12.0721V13.0721C12.632 13.0721 13.0797 12.6244 13.0797 12.0721H12.0797ZM12 12.0721H11C11 12.6244 11.4477 13.0721 12 13.0721V12.0721ZM20 12C20 16.4183 16.4183 20 12 20V22C17.5228 22 22 17.5228 22 12H20ZM12 20C7.58172 20 4 16.4183 4 12H2C2 17.5228 6.47715 22 12 22V20ZM4 12C4 7.58172 7.58172 4 12 4V2C6.47715 2 2 6.47715 2 12H4ZM12 4C16.4183 4 20 7.58172 20 12H22C22 6.47715 17.5228 2 12 2V4ZM15.5 12C15.5 13.933 13.933 15.5 12 15.5V17.5C15.0376 17.5 17.5 15.0376 17.5 12H15.5ZM12 15.5C10.067 15.5 8.5 13.933 8.5 12H6.5C6.5 15.0376 8.96243 17.5 12 17.5V15.5ZM8.5 12C8.5 10.067 10.067 8.5 12 8.5V6.5C8.96243 6.5 6.5 8.96243 6.5 12H8.5ZM12 8.5C13.933 8.5 15.5 10.067 15.5 12H17.5C17.5 8.96243 15.0376 6.5 12 6.5V8.5ZM12 13H12.0797V11H12V13ZM11.0797 12V12.0721H13.0797V12H11.0797ZM12.0797 11.0721H12V13.0721H12.0797V11.0721ZM13 12.0721V12H11V12.0721H13Z" fill="black"/>
</svg>
