<svg width="52" height="11" viewBox="0 0 52 11" fill="none" xmlns="http://www.w3.org/2000/svg">
<path d="M51.7564 10.716H44.9404V0.192017H51.6364V2.24402H47.2804V4.38002H51.5284V6.40802H47.2804V8.66402H51.7564V10.716Z" fill="black"/>
<path d="M39.3706 10.716H37.0186V0.192017H43.7386V2.24402H39.3706V4.58402H43.4266V6.63602H39.3706V10.716Z" fill="black"/>
<path d="M35.5737 10.716H33.2217V0.192017H35.5737V10.716Z" fill="black"/>
<path d="M32.2575 10.716H25.8975V0.192017H28.2495V8.66402H32.2575V10.716Z" fill="black"/>
<path d="M16.6876 10.716H13.9876L11.4436 6.57602L10.4476 7.83602V10.716H8.14355V0.192017H10.4476V4.39202L13.5916 0.192017H16.4476L12.8716 4.74002L16.6876 10.716Z" fill="black"/>
<path d="M3.504 10.908C2.172 10.908 0.972 10.488 0 9.852L0.36 7.8C1.068 8.304 2.28 8.832 3.384 8.832C4.14 8.832 4.74 8.508 4.752 7.8C4.764 7.14 4.236 6.768 3.144 6.36L2.604 6.156C0.876 5.508 0.036 4.548 0.036 2.964C0.036 1.128 1.416 0 3.54 0C4.608 0 5.664 0.3 6.492 0.78L6.192 2.724C5.316 2.256 4.476 2.076 3.708 2.076C3 2.076 2.412 2.352 2.4 3.024C2.388 3.72 2.988 3.972 3.96 4.344L4.5 4.548C6.096 5.148 7.128 6.024 7.128 7.8C7.128 9.744 5.592 10.908 3.504 10.908Z" fill="black"/>
<path d="M17.2361 1.23047H18.2986V0.167969H23.6111V1.23047H24.6736V4.41797H23.6111V5.48047H24.6736V9.73047H23.6111V10.793H18.2986V9.73047H17.2361V5.48047H18.2986V4.41797H17.2361V1.23047ZM19.3611 1.23047V4.41797H22.5486V1.23047H19.3611ZM19.3611 5.48047V9.73047H22.5486V5.48047H19.3611Z" fill="#FB0000"/>
</svg>
