<svg width="591" height="78" viewBox="0 0 591 78" fill="none" xmlns="http://www.w3.org/2000/svg">
<path d="M537.887 76.5431V1.04285H590.133V15.5381H555.615V31.4932H587.421V45.9885H555.615V62.0479H590.237V76.5431H537.887Z" fill="black"/>
<path d="M477.508 76.5431V1.04285H528.711V15.5381H495.236V31.4932H525.374V45.9885H495.236V76.5431H477.508Z" fill="black"/>
<path d="M466.037 1.04285V76.5431H448.309V1.04285H466.037Z" fill="black"/>
<path d="M325.986 76.5431V1.04285H378.231V15.5381H343.714V31.4932H375.52V45.9885H343.714V62.0479H378.336V76.5431H325.986Z" fill="black"/>
<path d="M230.672 1.04285H252.676L272.176 48.5955H273.011L292.511 1.04285H314.515V76.5431H297.204V29.6162H296.578L278.225 76.126H266.962L248.609 29.4076H247.983V76.5431H230.672V1.04285Z" fill="black"/>
<path d="M167.06 76.5431H147.872L173.525 1.04285H197.093L222.642 76.5431H203.559L198.449 60.3794H172.17L167.06 76.5431ZM176.445 46.8227H194.173L185.622 19.7094H184.997L176.445 46.8227Z" fill="black"/>
<path d="M124.304 25.6534C122.531 19.2922 117.422 15.6423 110.018 15.6423C98.9637 15.6423 91.8725 23.9849 91.8725 38.6887C91.8725 53.4968 98.5466 61.9436 110.018 61.9436C120.081 61.9436 125.764 56.6774 125.973 48.4912H110.748V35.4559H143.075V45.3627C143.075 65.4892 129.206 77.5859 109.913 77.5859C88.3269 77.5859 73.7274 62.7779 73.7274 38.8973C73.7274 14.1824 89.5783 0 109.6 0C127.016 0 140.468 10.6368 142.345 25.6534H124.304Z" fill="black"/>
<path d="M20.6479 1.04285L34.726 25.2363H35.3517L49.534 1.04285H69.4519L46.6141 38.793L70.1819 76.5431H49.7426L35.3517 52.1411H34.726L20.335 76.5431H0L23.4635 38.793L0.521411 1.04285H20.6479Z" fill="black"/>
<path d="M386.014 7.7H393.729V0H432.3V7.7H440.014V30.8H432.3V38.5H440.014V69.3H432.3V77H393.729V69.3H386.014V38.5H393.729V30.8H386.014V7.7ZM401.443 7.7V30.8H424.586V7.7H401.443ZM401.443 38.5V69.3H424.586V38.5H401.443Z" fill="#FB0000"/>
</svg>
